<svg width="393" height="243" xmlns="http://www.w3.org/2000/svg" xmlns:svg="http://www.w3.org/2000/svg">
 <g>
  <title>Layer 1</title>
  <g id="svg_1">
   <path stroke="#bdbdbd" fill="#bdbdbd" id="svg_2" d="m393.237,8.4165l-15.93,0l0,-7.348l-20.82,0l0,7.348l-289.005,0l0,-7.73l-11,0l0,7.898c-5.924,0.44 -11.58,1.814 -16.822,3.986c-4.264,-3.196 -9.503,-4.981 -14.88,-4.981c-13.664,0.001 -24.78,11.117 -24.78,24.781c0,6.878 2.842,13.349 7.742,17.982c-0.561,2.437 -0.968,4.94 -1.198,7.502l-1.98,22.004l5.168,0.738c9.833,1.405 18.449,6.614 24.262,14.667c5.813,8.054 8.044,17.873 6.281,27.647l-15.885,88.053c-1.432,7.937 0.713,16.037 5.885,22.225s12.763,9.737 20.827,9.737l44.101,0c8.908,0 16.598,-6.348 18.286,-15.095l12.076,-62.576c3.024,-15.669 16.801,-27.042 32.759,-27.042l31.837,0c18.364,0 34.525,-11.731 40.215,-29.192l3.996,-12.265c2.516,-7.721 9.616,-12.927 17.717,-13.033l51.725,-0.01l0,-7.96l89.403,0l0.02,-67.336zm-11.039,34.905l-59.707,0c-10.902,0 -20.442,5.913 -25.602,14.696l-279.296,0c1.878,-17.289 13.552,-31.181 29.245,-36.384l0,24.519l11,0l0,-26.638c0.924,-0.058 6.91,-0.098 6.91,-0.098l0,26.735l11,0l0,-26.735l6.91,0l0,26.735l11,0l0,-26.735l6.911,0l0,26.735l11,0l0,-26.735l6.91,0l0,26.735l11,0l0,-26.735l252.635,0l0.084,23.905zm-371.198,-10.951c0,-7.599 6.182,-13.78 13.78,-13.78c1.183,0 2.335,0.164 3.448,0.448c-6.687,4.95 -12.191,11.415 -16.008,18.948c-0.779,-1.743 -1.22,-3.644 -1.22,-5.616zm156.61,94.72l-3.946,0c-11.186,0 -20.286,-7.966 -20.286,-17.758c0,-12.966 11.01,-23.696 25.21,-25.297c-6.849,13.013 -7.24,29.985 -0.978,43.055zm52.307,-21.477c-4.209,12.92 -16.167,21.6 -29.756,21.6l-9.652,0c-8.887,-11.556 -8.249,-32.062 1.41,-43.404l29.865,-0.036l0,0.063c3.651,0.024 8.47,0.633 10.694,3.399c2.085,2.593 1.31,6.381 1.301,6.418l0.033,0.007l-3.895,11.953zm-47.658,-32.792c-21.99,0 -39.881,16.379 -39.881,36.511c0,8.277 3.828,15.688 9.937,20.888c-13.894,5.399 -24.593,17.624 -27.551,32.95l-12.076,62.576c-0.691,3.58 -3.838,6.179 -7.485,6.179l-44.101,0c-4.796,0 -9.311,-2.111 -12.387,-5.791s-4.352,-8.498 -3.5,-13.218l15.885,-88.052c2.298,-12.742 -0.609,-25.54 -8.187,-36.038c-6.546,-9.068 -15.818,-15.37 -26.483,-18.098l0.154,-1.711l276.506,0c-0.163,1.212 -0.262,2.443 -0.274,3.696l-120.557,0.108zm209.958,-8.068l-76.46,0c3.053,-6.169 9.397,-10.432 16.734,-10.432l59.726,0l0,10.432z"/>
   <path stroke="#bdbdbd" fill="#bdbdbd" id="svg_3" d="m98.387,77.0005l-11.982,0c-13.214,0 -24.607,10.505 -27.09,24.978l-16.184,94.315c-1.306,7.609 0.76,15.527 5.525,21.18c4.183,4.962 9.874,7.694 16.025,7.694l19.833,0c7.502,0 13.974,-5.845 15.387,-13.897l18.782,-107.025c1.257,-7.16 -0.669,-14.622 -5.151,-19.959c-3.946,-4.699 -9.324,-7.286 -15.145,-7.286zm9.462,25.343l-18.782,107.024c-0.488,2.781 -2.403,4.799 -4.553,4.799l-19.833,0c-2.853,0 -5.558,-1.344 -7.615,-3.784c-2.702,-3.205 -3.858,-7.776 -3.094,-12.229l16.184,-94.315c1.574,-9.177 8.408,-15.838 16.249,-15.838l11.982,0c2.515,0 4.901,1.193 6.721,3.359c2.417,2.879 3.442,6.985 2.741,10.984z"/>
  </g>
  <g id="svg_4"/>
  <g id="svg_5"/>
  <g id="svg_6"/>
  <g id="svg_7"/>
  <g id="svg_8"/>
  <g id="svg_9"/>
  <g id="svg_10"/>
  <g id="svg_11"/>
  <g id="svg_12"/>
  <g id="svg_13"/>
  <g id="svg_14"/>
  <g id="svg_15"/>
  <g id="svg_16"/>
  <g id="svg_17"/>
  <g id="svg_18"/>
 </g>
</svg>